<svg width="20" height="18" viewBox="0 0 20 18" fill="none" xmlns="http://www.w3.org/2000/svg">
<path fill-rule="evenodd" clip-rule="evenodd" d="M9.99998 2.62866C11.7697 -0.442704 16.1553 -0.801154 18.381 2.06759L18.6904 2.46631C20.5727 4.89249 20.3009 8.35235 18.0628 10.4548L11.0927 17.0026C10.9885 17.1005 10.8746 17.2075 10.7673 17.2902C10.6438 17.3853 10.4711 17.4954 10.2407 17.5406C10.0817 17.5718 9.91823 17.5718 9.75926 17.5406C9.52882 17.4954 9.35619 17.3853 9.2327 17.2902C9.12536 17.2075 9.01157 17.1006 8.90743 17.0027L1.93715 10.4548C-0.300983 8.35235 -0.572773 4.8925 1.30961 2.46632L1.61896 2.06759C3.84471 -0.801149 8.23028 -0.442705 9.99998 2.62866ZM14.0083 7.0515C14.3128 6.77078 14.3322 6.2963 14.0515 5.99172C13.7708 5.68713 13.2963 5.66778 12.9917 5.9485L9.13165 9.50604L7.51925 7.95884C7.22037 7.67205 6.7456 7.68185 6.45881 7.98072C6.17202 8.2796 6.18182 8.75437 6.4807 9.04116L8.60202 11.0767C8.888 11.3511 9.33813 11.3556 9.62957 11.087L14.0083 7.0515Z" fill="#F2F2F2"/>
</svg>
