<svg width="20" height="18" viewBox="0 0 20 18" fill="none" xmlns="http://www.w3.org/2000/svg">
<path fill-rule="evenodd" clip-rule="evenodd" d="M10 3.35247C11.6222 0.409084 15.6423 0.0655695 17.6826 2.81478L17.9662 3.19689C19.6917 5.52198 19.4426 8.83768 17.3909 10.8526L11.0016 17.1275C10.9061 17.2213 10.8018 17.3239 10.7033 17.4031C10.5902 17.4943 10.4319 17.5997 10.2207 17.6431C10.0749 17.673 9.92506 17.673 9.77935 17.6431C9.5681 17.5997 9.40986 17.4943 9.29666 17.4031C9.19827 17.3239 9.09396 17.2214 8.9985 17.1276L2.60907 10.8526C0.557453 8.83768 0.308311 5.52199 2.03383 3.1969L2.3174 2.81479C4.35767 0.0655743 8.37778 0.409083 10 3.35247ZM13.6742 7.59103C13.9535 7.32201 13.9712 6.8673 13.7139 6.5754C13.4565 6.28351 13.0216 6.26497 12.7424 6.53399L9.20403 9.94329L7.726 8.46056C7.45203 8.18572 7.01682 8.19511 6.75393 8.48153C6.49104 8.76796 6.50002 9.22295 6.77399 9.49778L8.71853 11.4485C8.98068 11.7115 9.3933 11.7158 9.66046 11.4584L13.6742 7.59103Z" fill="url(#paint0_linear_1023_9)"/>
<defs>
<linearGradient id="paint0_linear_1023_9" x1="10" y1="0.936142" x2="10" y2="17.6655" gradientUnits="userSpaceOnUse">
<stop stop-color="#0098EE"/>
<stop offset="1" stop-color="#01E5BB"/>
</linearGradient>
</defs>
</svg>
