<svg width="20" height="12" viewBox="0 0 20 12" fill="none" xmlns="http://www.w3.org/2000/svg">
<path d="M17.5 0C16.19 0 15.13 1.01 15.02 2.3C13.14 1.8 12.18 0.5 10 0.5C7.81 0.5 6.86 1.8 4.98 2.3C4.87 1.02 3.81 0 2.5 0C1.12 0 0 1.12 0 2.5V3C0 9 3.6 10.81 6.52 10.98C7.53 11.62 8.72 12 10 12C11.28 12 12.47 11.62 13.48 10.98C16.4 10.81 20 9 20 3V2.5C20 1.12 18.88 0 17.5 0ZM1.5 3V2.5C1.5 1.95 1.95 1.5 2.5 1.5C3.05 1.5 3.5 1.95 3.5 2.5V5.5C3.5 6.78 3.88 7.97 4.51 8.98C2.99 8.27 1.5 6.65 1.5 3ZM18.5 3C18.5 6.65 17.01 8.27 15.49 8.98C16.13 7.97 16.5 6.78 16.5 5.5V2.5C16.5 1.95 16.95 1.5 17.5 1.5C18.05 1.5 18.5 1.95 18.5 2.5V3ZM8.69 4.48C8.25 4.74 7.73 5.04 7 5.24V4.2C7.48 4.03 7.84 3.82 8.18 3.62C8.72 3.3 9.23 3 10 3C10.77 3 11.27 3.3 11.8 3.62C12.14 3.82 12.51 4.04 13 4.21V5.25C12.25 5.04 11.74 4.74 11.29 4.47C10.83 4.2 10.49 4 10 4C9.51 4 9.16 4.2 8.69 4.48Z" fill="url(#paint0_linear_19_1027)"/>
<defs>
<linearGradient id="paint0_linear_19_1027" x1="0" y1="0" x2="20" y2="12" gradientUnits="userSpaceOnUse">
<stop stop-color="#0098EE"/>
<stop offset="1" stop-color="#00EEB5"/>
</linearGradient>
</defs>
</svg>
