<svg width="16" height="15" viewBox="0 0 16 15" fill="none" xmlns="http://www.w3.org/2000/svg">
<path d="M14.9375 6.4375C14.63 6.4375 14.375 6.67834 14.375 6.96875H13.22C13.1075 5.99834 12.7025 5.10583 12.08 4.38334L12.8975 3.61125L12.905 3.61834C13.1225 3.82375 13.4825 3.82375 13.7 3.61834C13.9175 3.41292 13.9175 3.07292 13.7 2.8675L12.905 2.11667C12.6875 1.91125 12.3275 1.91125 12.11 2.11667C11.8925 2.32208 11.8925 2.655 12.1025 2.86042L11.285 3.6325C10.52 3.05167 9.5825 2.66917 8.555 2.56292V1.47917H8.5625C8.87 1.47917 9.125 1.23833 9.125 0.947918C9.125 0.657501 8.87 0.416668 8.5625 0.416668H7.4375C7.13 0.416668 6.875 0.657501 6.875 0.947918C6.875 1.23833 7.1225 1.47208 7.43 1.47917V2.57709C6.4025 2.67625 5.465 3.06583 4.7 3.64667L3.8825 2.87458L3.89 2.8675C4.1075 2.66209 4.1075 2.32208 3.89 2.11667C3.6725 1.91125 3.3125 1.91125 3.095 2.11667L2.3 2.8675C2.0825 3.07292 2.0825 3.41292 2.3 3.61834C2.5175 3.82375 2.87 3.82375 3.0875 3.62542L3.905 4.3975C3.29 5.12 2.885 5.99834 2.78 6.96875H1.625C1.625 6.67834 1.37 6.4375 1.0625 6.4375C0.755 6.4375 0.5 6.67834 0.5 6.96875V8.03125C0.5 8.32167 0.755 8.5625 1.0625 8.5625C1.37 8.5625 1.625 8.32167 1.625 8.03125H2.78C2.8925 9.00167 3.2975 9.88 3.905 10.6025L3.0875 11.3746C2.87 11.1692 2.5175 11.1763 2.3 11.3817C2.0825 11.5871 2.0825 11.9271 2.3 12.1325L3.095 12.8833C3.3125 13.0888 3.6725 13.0888 3.89 12.8833C4.1075 12.6779 4.1075 12.3379 3.89 12.1325L3.8825 12.1254L4.7 11.3533C5.465 11.9342 6.395 12.3167 7.4225 12.4229V13.5208C7.115 13.5279 6.8675 13.7617 6.8675 14.0521C6.8675 14.3425 7.1225 14.5833 7.43 14.5833H8.555C8.8625 14.5833 9.1175 14.3425 9.1175 14.0521C9.1175 13.7617 8.8625 13.5208 8.555 13.5208H8.5475V12.43C9.575 12.3308 10.5125 11.9413 11.2775 11.3604L12.095 12.1325C11.8775 12.3379 11.885 12.6708 12.1025 12.8763C12.32 13.0817 12.68 13.0817 12.8975 12.8763L13.6925 12.1254C13.91 11.92 13.91 11.58 13.6925 11.3746C13.475 11.1692 13.115 11.1692 12.8975 11.3746L12.89 11.3817L12.0725 10.6096C12.6875 9.88709 13.1 9.00167 13.2125 8.02417H14.3675C14.3675 8.31459 14.6225 8.55542 14.93 8.55542C15.2375 8.55542 15.4925 8.31459 15.4925 8.02417V6.96167C15.5 6.67834 15.245 6.4375 14.9375 6.4375ZM9.3125 4.66667C9.725 4.66667 10.0625 4.98542 10.0625 5.375C10.0625 5.76459 9.725 6.08334 9.3125 6.08334C8.9 6.08334 8.5625 5.76459 8.5625 5.375C8.5625 4.98542 8.9 4.66667 9.3125 4.66667ZM8 8.20834C7.5875 8.20834 7.25 7.88959 7.25 7.5C7.25 7.11042 7.5875 6.79167 8 6.79167C8.4125 6.79167 8.75 7.11042 8.75 7.5C8.75 7.88959 8.4125 8.20834 8 8.20834ZM6.6875 4.66667C7.1 4.66667 7.4375 4.98542 7.4375 5.375C7.4375 5.76459 7.1 6.08334 6.6875 6.08334C6.275 6.08334 5.9375 5.76459 5.9375 5.375C5.9375 4.98542 6.275 4.66667 6.6875 4.66667ZM5.375 8.20834C4.9625 8.20834 4.625 7.88959 4.625 7.5C4.625 7.11042 4.9625 6.79167 5.375 6.79167C5.7875 6.79167 6.125 7.11042 6.125 7.5C6.125 7.88959 5.7875 8.20834 5.375 8.20834ZM6.6875 10.3333C6.275 10.3333 5.9375 10.0146 5.9375 9.625C5.9375 9.23542 6.275 8.91667 6.6875 8.91667C7.1 8.91667 7.4375 9.23542 7.4375 9.625C7.4375 10.0146 7.1 10.3333 6.6875 10.3333ZM9.3125 10.3333C8.9 10.3333 8.5625 10.0146 8.5625 9.625C8.5625 9.23542 8.9 8.91667 9.3125 8.91667C9.725 8.91667 10.0625 9.23542 10.0625 9.625C10.0625 10.0146 9.725 10.3333 9.3125 10.3333ZM9.875 7.5C9.875 7.11042 10.2125 6.79167 10.625 6.79167C11.0375 6.79167 11.375 7.11042 11.375 7.5C11.375 7.88959 11.0375 8.20834 10.625 8.20834C10.2125 8.20834 9.875 7.88959 9.875 7.5Z" fill="url(#paint0_linear_19_806)"/>
<defs>
<linearGradient id="paint0_linear_19_806" x1="7.99633" y1="0.416668" x2="7.99633" y2="14.5833" gradientUnits="userSpaceOnUse">
<stop stop-color="#0199EE"/>
<stop offset="1" stop-color="#01E5BB"/>
</linearGradient>
</defs>
</svg>
