<svg width="20" height="20" viewBox="0 0 20 20" fill="none" xmlns="http://www.w3.org/2000/svg">
<path d="M19.25 8.5C18.84 8.5 18.5 8.84 18.5 9.25H16.96C16.81 7.88 16.27 6.62 15.44 5.6L16.53 4.51L16.54 4.52C16.83 4.81 17.31 4.81 17.6 4.52C17.89 4.23 17.89 3.75 17.6 3.46L16.54 2.4C16.25 2.11 15.77 2.11 15.48 2.4C15.19 2.69 15.19 3.16 15.47 3.45L14.38 4.54C13.36 3.72 12.11 3.18 10.74 3.03V1.5H10.75C11.16 1.5 11.5 1.16 11.5 0.75C11.5 0.34 11.16 0 10.75 0H9.25C8.84 0 8.5 0.34 8.5 0.75C8.5 1.16 8.83 1.49 9.24 1.5V3.05C7.87 3.19 6.62 3.74 5.6 4.56L4.51 3.47L4.52 3.46C4.81 3.17 4.81 2.69 4.52 2.4C4.23 2.11 3.75 2.11 3.46 2.4L2.4 3.46C2.11 3.75 2.11 4.23 2.4 4.52C2.69 4.81 3.16 4.81 3.45 4.53L4.54 5.62C3.72 6.64 3.18 7.88 3.04 9.25H1.5C1.5 8.84 1.16 8.5 0.75 8.5C0.34 8.5 0 8.84 0 9.25V10.75C0 11.16 0.34 11.5 0.75 11.5C1.16 11.5 1.5 11.16 1.5 10.75H3.04C3.19 12.12 3.73 13.36 4.54 14.38L3.45 15.47C3.16 15.18 2.69 15.19 2.4 15.48C2.11 15.77 2.11 16.25 2.4 16.54L3.46 17.6C3.75 17.89 4.23 17.89 4.52 17.6C4.81 17.31 4.81 16.83 4.52 16.54L4.51 16.53L5.6 15.44C6.62 16.26 7.86 16.8 9.23 16.95V18.5C8.82 18.51 8.49 18.84 8.49 19.25C8.49 19.66 8.83 20 9.24 20H10.74C11.15 20 11.49 19.66 11.49 19.25C11.49 18.84 11.15 18.5 10.74 18.5H10.73V16.96C12.1 16.82 13.35 16.27 14.37 15.45L15.46 16.54C15.17 16.83 15.18 17.3 15.47 17.59C15.76 17.88 16.24 17.88 16.53 17.59L17.59 16.53C17.88 16.24 17.88 15.76 17.59 15.47C17.3 15.18 16.82 15.18 16.53 15.47L16.52 15.48L15.43 14.39C16.25 13.37 16.8 12.12 16.95 10.74H18.49C18.49 11.15 18.83 11.49 19.24 11.49C19.65 11.49 19.99 11.15 19.99 10.74V9.24C20 8.84 19.66 8.5 19.25 8.5ZM11.75 6C12.3 6 12.75 6.45 12.75 7C12.75 7.55 12.3 8 11.75 8C11.2 8 10.75 7.55 10.75 7C10.75 6.45 11.2 6 11.75 6ZM10 11C9.45 11 9 10.55 9 10C9 9.45 9.45 9 10 9C10.55 9 11 9.45 11 10C11 10.55 10.55 11 10 11ZM8.25 6C8.8 6 9.25 6.45 9.25 7C9.25 7.55 8.8 8 8.25 8C7.7 8 7.25 7.55 7.25 7C7.25 6.45 7.7 6 8.25 6ZM6.5 11C5.95 11 5.5 10.55 5.5 10C5.5 9.45 5.95 9 6.5 9C7.05 9 7.5 9.45 7.5 10C7.5 10.55 7.05 11 6.5 11ZM8.25 14C7.7 14 7.25 13.55 7.25 13C7.25 12.45 7.7 12 8.25 12C8.8 12 9.25 12.45 9.25 13C9.25 13.55 8.8 14 8.25 14ZM11.75 14C11.2 14 10.75 13.55 10.75 13C10.75 12.45 11.2 12 11.75 12C12.3 12 12.75 12.45 12.75 13C12.75 13.55 12.3 14 11.75 14ZM12.5 10C12.5 9.45 12.95 9 13.5 9C14.05 9 14.5 9.45 14.5 10C14.5 10.55 14.05 11 13.5 11C12.95 11 12.5 10.55 12.5 10Z" fill="white"/>
</svg>
